<?xml version="1.0" encoding="UTF-8" standalone="no"?>
<!DOCTYPE svg PUBLIC "-//W3C//DTD SVG 1.1//EN"
 "http://www.w3.org/Graphics/SVG/1.1/DTD/svg11.dtd">
<!-- Generated by graphviz version 5.0.0 (20220707.1540)
 -->
<!-- Title: StorageDiagram Pages: 1 -->
<svg width="789pt" height="276pt"
 viewBox="0.00 0.00 789.31 276.00" xmlns="http://www.w3.org/2000/svg" xmlns:xlink="http://www.w3.org/1999/xlink">
<g id="graph0" class="graph" transform="scale(1 1) rotate(0) translate(4 272)">
<title>StorageDiagram</title>
<polygon fill="white" stroke="transparent" points="-4,4 -4,-272 785.31,-272 785.31,4 -4,4"/>
<!-- 3 -->
<g id="node1" class="node">
<title>3</title>
<polygon fill="#f2f2f2" stroke="black" points="0,-71.7 0,-220.5 426.86,-220.5 426.86,-71.7 0,-71.7"/>
<text text-anchor="middle" x="213.43" y="-203.9" font-family="Courier New" font-size="14.00">GasContract &lt;&lt;Contract&gt;&gt;</text>
<polyline fill="none" stroke="black" points="0,-195.7 426.86,-195.7 "/>
<text text-anchor="middle" x="24.8" y="-179.1" font-family="Courier New" font-size="14.00">slot</text>
<polyline fill="none" stroke="black" points="0,-170.9 49.61,-170.9 "/>
<text text-anchor="middle" x="24.8" y="-154.3" font-family="Courier New" font-size="14.00">0&#45;4</text>
<polyline fill="none" stroke="black" points="0,-146.1 49.61,-146.1 "/>
<text text-anchor="middle" x="24.8" y="-129.5" font-family="Courier New" font-size="14.00">5</text>
<polyline fill="none" stroke="black" points="0,-121.3 49.61,-121.3 "/>
<text text-anchor="middle" x="24.8" y="-104.7" font-family="Courier New" font-size="14.00">6</text>
<polyline fill="none" stroke="black" points="0,-96.5 49.61,-96.5 "/>
<text text-anchor="middle" x="24.8" y="-79.9" font-family="Courier New" font-size="14.00">7</text>
<polyline fill="none" stroke="black" points="49.61,-71.7 49.61,-195.7 "/>
<text text-anchor="middle" x="238.23" y="-179.1" font-family="Courier New" font-size="14.00">type: &lt;inherited contract&gt;.variable (bytes)</text>
<polyline fill="none" stroke="black" points="49.61,-170.9 426.86,-170.9 "/>
<text text-anchor="middle" x="238.03" y="-154.3" font-family="Courier New" font-size="14.00">address[5]: administrators (160)</text>
<polyline fill="none" stroke="black" points="49.61,-146.1 426.86,-146.1 "/>
<text text-anchor="middle" x="238.13" y="-129.5" font-family="Courier New" font-size="14.00">mapping(address=&gt;uint256): balances (32)</text>
<polyline fill="none" stroke="black" points="49.61,-121.3 426.86,-121.3 "/>
<text text-anchor="middle" x="237.83" y="-104.7" font-family="Courier New" font-size="14.00">mapping(address=&gt;uint256): whitelist (32)</text>
<polyline fill="none" stroke="black" points="49.61,-96.5 426.86,-96.5 "/>
<text text-anchor="middle" x="238.03" y="-79.9" font-family="Courier New" font-size="14.00">mapping(address=&gt;Payment[]): payments (32)</text>
</g>
<!-- 1 -->
<g id="node2" class="node">
<title>1</title>
<polygon fill="#f2f2f2" stroke="black" points="462.86,-118.7 462.86,-267.5 781.31,-267.5 781.31,-118.7 462.86,-118.7"/>
<text text-anchor="middle" x="622.09" y="-250.9" font-family="Courier New" font-size="14.00">address[5]: administrators &lt;&lt;Array&gt;&gt;</text>
<polyline fill="none" stroke="black" points="462.86,-242.7 781.31,-242.7 "/>
<text text-anchor="middle" x="487.67" y="-226.1" font-family="Courier New" font-size="14.00">slot</text>
<polyline fill="none" stroke="black" points="462.86,-217.9 512.47,-217.9 "/>
<text text-anchor="middle" x="487.67" y="-201.3" font-family="Courier New" font-size="14.00">0</text>
<polyline fill="none" stroke="black" points="462.86,-193.1 512.47,-193.1 "/>
<text text-anchor="middle" x="487.67" y="-176.5" font-family="Courier New" font-size="14.00">1</text>
<polyline fill="none" stroke="black" points="462.86,-168.3 512.47,-168.3 "/>
<text text-anchor="middle" x="487.67" y="-151.7" font-family="Courier New" font-size="14.00">3</text>
<polyline fill="none" stroke="black" points="462.86,-143.5 512.47,-143.5 "/>
<text text-anchor="middle" x="487.67" y="-126.9" font-family="Courier New" font-size="14.00">4</text>
<polyline fill="none" stroke="black" points="512.47,-118.7 512.47,-242.7 "/>
<text text-anchor="middle" x="646.59" y="-226.1" font-family="Courier New" font-size="14.00">type: variable (bytes)</text>
<polyline fill="none" stroke="black" points="512.47,-217.9 780.71,-217.9 "/>
<text text-anchor="middle" x="587.68" y="-201.3" font-family="Courier New" font-size="14.00">unallocated (12)</text>
<polyline fill="none" stroke="black" points="662.89,-193.1 662.89,-217.9 "/>
<text text-anchor="middle" x="721.8" y="-201.3" font-family="Courier New" font-size="14.00">address (20)</text>
<polyline fill="none" stroke="black" points="512.47,-193.1 780.71,-193.1 "/>
<text text-anchor="middle" x="587.68" y="-176.5" font-family="Courier New" font-size="14.00">unallocated (12)</text>
<polyline fill="none" stroke="black" points="662.89,-168.3 662.89,-193.1 "/>
<text text-anchor="middle" x="721.8" y="-176.5" font-family="Courier New" font-size="14.00">address (20)</text>
<polyline fill="none" stroke="black" points="512.47,-168.3 780.71,-168.3 "/>
<text text-anchor="middle" x="587.68" y="-151.7" font-family="Courier New" font-size="14.00">unallocated (12)</text>
<polyline fill="none" stroke="black" points="662.89,-143.5 662.89,-168.3 "/>
<text text-anchor="middle" x="721.8" y="-151.7" font-family="Courier New" font-size="14.00">address (20)</text>
<polyline fill="none" stroke="black" points="512.47,-143.5 780.71,-143.5 "/>
<text text-anchor="middle" x="587.68" y="-126.9" font-family="Courier New" font-size="14.00">unallocated (12)</text>
<polyline fill="none" stroke="black" points="662.89,-118.7 662.89,-143.5 "/>
<text text-anchor="middle" x="721.8" y="-126.9" font-family="Courier New" font-size="14.00">address (20)</text>
</g>
<!-- 3&#45;&gt;1 -->
<g id="edge1" class="edge">
<title>3:5&#45;&gt;1</title>
<path fill="none" stroke="black" d="M426.86,-158.1C435.3,-158.1 443.91,-158.42 452.58,-159.01"/>
<polygon fill="black" stroke="black" points="452.53,-162.52 462.78,-159.81 453.08,-155.54 452.53,-162.52"/>
</g>
<!-- 2 -->
<g id="node3" class="node">
<title>2</title>
<polygon fill="#f2f2f2" stroke="black" points="475.87,-0.5 475.87,-99.7 768.31,-99.7 768.31,-0.5 475.87,-0.5"/>
<text text-anchor="middle" x="622.09" y="-83.1" font-family="Courier New" font-size="14.00">Payment &lt;&lt;Struct&gt;&gt;</text>
<polyline fill="none" stroke="black" points="475.87,-74.9 768.31,-74.9 "/>
<text text-anchor="middle" x="509.07" y="-58.3" font-family="Courier New" font-size="14.00">offset</text>
<polyline fill="none" stroke="black" points="475.87,-50.1 542.28,-50.1 "/>
<text text-anchor="middle" x="509.07" y="-33.5" font-family="Courier New" font-size="14.00">0</text>
<polyline fill="none" stroke="black" points="475.87,-25.3 542.28,-25.3 "/>
<text text-anchor="middle" x="509.07" y="-8.7" font-family="Courier New" font-size="14.00">1</text>
<polyline fill="none" stroke="black" points="542.28,-0.5 542.28,-74.9 "/>
<text text-anchor="middle" x="655.29" y="-58.3" font-family="Courier New" font-size="14.00">type: variable (bytes)</text>
<polyline fill="none" stroke="black" points="542.28,-50.1 768.31,-50.1 "/>
<text text-anchor="middle" x="655.29" y="-33.5" font-family="Courier New" font-size="14.00">uint256: amount (32)</text>
<polyline fill="none" stroke="black" points="542.28,-25.3 768.31,-25.3 "/>
<text text-anchor="middle" x="655.29" y="-8.7" font-family="Courier New" font-size="14.00">uint256: paymentType (32)</text>
</g>
<!-- 3&#45;&gt;2 -->
<g id="edge2" class="edge">
<title>3:10&#45;&gt;2</title>
<path fill="none" stroke="black" d="M426.86,-84.1C439.55,-84.1 452.63,-83.39 465.73,-82.17"/>
<polygon fill="black" stroke="black" points="466.15,-85.64 475.74,-81.14 465.44,-78.68 466.15,-85.64"/>
</g>
</g>
</svg>
